<?xml version="1.0" encoding="utf-8"?>
<!-- Generator: Adobe Illustrator 17.1.0, SVG Export Plug-In . SVG Version: 6.00 Build 0)  -->
<!DOCTYPE svg PUBLIC "-//W3C//DTD SVG 1.1//EN" "http://www.w3.org/Graphics/SVG/1.1/DTD/svg11.dtd">
<svg version="1.1" id="Ebene_1" xmlns="http://www.w3.org/2000/svg" xmlns:xlink="http://www.w3.org/1999/xlink" x="0px" y="0px"
	 viewBox="0 0 100 100" enable-background="new 0 0 100 100" xml:space="preserve">
<circle fill="#B2B2B2" cx="50" cy="50" r="50"/>
<g>
	<path d="M40.9,37.8h42.8v-14L48.5,13L16.4,23.8l0,9v4.8h1.3 M36,83.6C36,83.5,36.1,83.5,36,83.6C36,83.5,36,83.6,36,83.6
		C36,83.6,36,83.6,36,83.6z M50.7,64c-0.1-0.3-0.2-0.5-0.2-0.5c0.1,0,0.2-0.1,0.1-0.3c0-0.1-0.2,0-0.4-0.1c-0.2-0.1-0.3-0.4-0.4-0.6
		c-0.2-0.2-0.4-0.3-0.7-0.5c-0.5-0.3-1-0.6-1.4-1.1c-0.4-0.5-0.9-1-1.4-1.5c-0.6-0.6-1-1.2-1.5-1.8c-0.5-0.6-1-1.1-1.6-1.6
		c-0.5-0.4-0.4-1-0.8-1.5c-0.3-0.4-0.3-0.9-0.2-1.4c0-0.2-0.1-0.5-0.2-0.7c-0.1-0.3-0.1-0.6-0.3-0.9c-0.4-0.6-1.1-0.7-1.7-0.9
		c-0.5-0.1-0.9-0.3-1.4-0.4c0.1-0.4,0.4-0.8,0.4-1.3c0.1-0.1,0.2-0.1,0.3-0.2c0.1-0.1,0.1-0.4,0.1-0.5c0-0.2,0.2-0.4,0.2-0.6
		c0,0,0-0.1,0-0.1s0,0,0,0c0,0,0.1,0,0.1,0c-0.1-0.2-0.1-0.3-0.1-0.5c0,0,0,0.1,0.1,0.1c-0.1-0.2,0-0.3,0-0.5c0,0.1,0.1,0.1,0.1,0.1
		c-0.1-0.1-0.1-0.3-0.1-0.4c0,0,0.1,0.1,0.1,0.1c0,0,0-0.1,0-0.2c0-0.1-0.1-0.2-0.1-0.2c0,0.1,0,0.1,0.1,0.1c0-0.1,0-0.3-0.1-0.3
		c0,0-0.1-0.1-0.1-0.1s0,0,0.1,0c0,0,0.1,0,0.1,0s-0.1,0-0.1,0c0,0,0-0.1,0-0.1s0,0.1,0,0.1c0,0,0.1,0,0.1,0c-0.1-0.1,0-0.3-0.2-0.4
		c0.1,0,0.1,0,0.1,0c0,0,0-0.1-0.1-0.1c0,0-0.1,0-0.1,0s0.1,0,0.1,0c0,0,0.1,0,0.1,0s0-0.1-0.1-0.1c0,0-0.1,0-0.2,0c0,0,0.1,0,0.1,0
		c0.1,0,0.1,0,0.1,0c-0.1,0-0.2,0-0.2,0c0,0,0.1,0,0.2,0c0.1,0,0.1-0.1,0.1-0.1c-0.1,0-0.2,0-0.4,0c0,0,0.1,0,0.1,0
		c0.1,0,0.1-0.1,0.1-0.1c-0.1,0-0.2,0-0.3,0c0,0,0,0,0.1,0c0.1,0,0.1,0,0.1,0s0,0-0.1,0c0,0-0.1,0-0.1,0s0.1-0.1,0.2,0
		c0,0,0.1,0,0.1,0c0,0,0,0,0-0.1c0,0,0,0-0.1,0c-0.1,0-0.1-0.1-0.1-0.1s0.1,0,0.1,0c0,0,0.1,0,0.1,0s0,0-0.1,0c0,0,0-0.1-0.1-0.1
		c-0.1,0-0.1,0-0.2,0c0.1,0,0.1,0,0.2,0c-0.1,0-0.2-0.1-0.3-0.1c0,0-0.1,0-0.1,0c0,0,0,0,0,0c0,0-0.1,0-0.1,0s0,0,0.1,0c0,0,0,0,0,0
		s0,0-0.1,0c0,0-0.1,0-0.1,0c0.1,0,0.1,0,0.2,0c-0.1,0-0.2-0.1-0.2-0.1c-0.1,0-0.2,0.1-0.2,0.1c0.1-0.1,0.1-0.2,0.1-0.3
		c0,0-0.1,0.1-0.1,0.1c0,0-0.1,0-0.1,0s0,0,0.1,0c0,0,0.1-0.1,0.1-0.1c-0.1,0-0.2,0-0.2,0c0,0,0.1,0,0.1,0c0,0,0,0-0.1-0.1
		c-0.1,0-0.2,0-0.3,0c0.1,0,0.1,0,0.2,0c-0.1,0-0.2-0.1-0.3-0.1c-0.1,0-0.1,0-0.1,0.1c0,0,0,0,0,0c0,0,0-0.1,0-0.1
		c0,0-0.1,0.1-0.1,0.1c0-0.1-0.1-0.1-0.1-0.1c0.1,0,0.1,0.1,0.1,0.2c0,0-0.1-0.1-0.1-0.1c0,0-0.1-0.1-0.1-0.1s0.1,0,0.1,0.1
		c0,0,0.1,0.1,0.1,0.1s-0.1-0.1-0.1-0.1c-0.1,0-0.2-0.1-0.2-0.1s0.1,0,0.1,0.1c0,0.1,0,0.1,0,0.1c-0.1,0-0.2-0.1-0.3-0.1
		c0,0,0.1,0,0.1,0.1c0,0,0,0.1,0,0.1c-0.1-0.1-0.2-0.1-0.3-0.1c0,0,0.1,0.1,0.1,0.1c0,0-0.1,0-0.2,0c0.1,0,0.1,0.1,0.2,0.1
		c-0.2,0-0.4,0-0.6,0c0,0,0.1,0,0.1,0c0,0-0.1,0-0.1,0c-0.1,0-0.1,0-0.1,0c0.1,0,0.1,0,0.2,0c0,0,0,0-0.1,0c-0.1,0-0.2,0-0.3,0.1
		c0.1,0,0.1,0,0.2,0c-0.1,0-0.2,0.1-0.3,0.1c-0.1,0-0.1,0-0.1,0c0,0,0.1,0.1,0.1,0.1c-0.1,0-0.2,0.1-0.2,0.1c0,0,0.1,0,0.1,0
		c0,0,0,0,0,0c-0.2,0.1-0.4,0.3-0.6,0.4c0,0,0.1,0,0.1,0c0,0,0.1,0,0.1,0c-0.1,0.1-0.2,0.2-0.3,0.3c0.1,0,0.1,0,0.2-0.1
		c-0.1,0.1-0.2,0.4-0.2,0.6c0,0,0-0.1,0.1-0.1c-0.1,0.2-0.1,0.5-0.2,0.7c0,0,0.1,0,0.1,0c0,0.1-0.1,0.2-0.1,0.3c0,0,0,0,0.1,0
		c0,0,0.1,0,0.1,0C35,46.8,35,46.9,34.9,47c0,0,0.1-0.1,0.1-0.1c0,0.1,0,0.1,0,0.2c0,0-0.2,0-0.2,0.3c0,0.1,0.1,0.3,0.1,0.4
		c0,0.2-0.1,0.5,0,0.7c0,0.1,0.2,0.2,0.2,0.3c0.1,0,0.2,0,0.2,0c0.1,0.4,0.1,0.8,0.1,1.1c0,0-0.1,0-0.1,0c-0.1,0-0.1,0.2-0.2,0.3
		c-0.2,0.1-0.3,0.1-0.5,0.2c-0.3,0.2-0.7,0.3-1,0.4c-0.7,0.2-1.3,0.4-1.9,0.8c-0.1,0.1-0.1,0.2-0.2,0.3c-0.2,0.1-0.5,0.3-0.7,0.5
		c-0.3,0.3-0.7,0.6-1,0.9c-0.2,0.2-0.4,0.4-0.6,0.6c-0.1,0.1-0.2,0.2-0.2,0.3c-0.1,0.2-0.3,0.1-0.4,0.2c-0.5,0.4-1.1,0.9-1.6,1.2
		c0,0,0,0.1,0.1,0.1c0,0-0.8,0.5-0.9,0.5c-0.4,0.2-0.8,0.4-1.2,0.7c-0.7,0.5-1.3,1-2,1.6c-0.7,0.6-1.3,1.1-2,1.7
		c-0.4,0.3-0.8,0.6-1.1,0.9c-0.3,0.2-0.9,0.4-1.1,0.7c-0.2,0.2-0.1,0.6-0.1,0.8c0,0.2-0.1,0.5,0,0.7c0.1,0.2,0.5,0.5,0.7,0.5
		c0.1,0,0.2,0,0.2-0.1c0.1-0.1-0.2-0.3-0.2-0.3c0,0.1,0.8-0.3,0.9-0.3c0.1-0.1,0.1-0.4,0.1-0.5c0-0.2,0.6-0.4,0.7-0.6
		c0.1-0.1,0.2-0.4,0.4-0.7c0.3-0.4,1-0.6,1.4-0.8c0.6-0.3,1.1-0.5,1.7-0.8c0.5-0.2,1-0.5,1.4-0.9c0.3-0.3,0.8-0.7,1.2-0.9
		c0.3-0.1,0.6-0.1,0.8-0.2c0.2-0.1,0.4-0.1,0.6-0.2c0.2,0.1,0.5,0.3,0.7,0.3c0.1,0,0.2-0.3,0.4-0.5c0.2-0.2,0.4-0.3,0.7-0.4
		c0.4-0.1,0.9-0.1,1.1-0.1c0.2,0,0.4,1.1,0.4,1.3c0,0.2-0.1,0.2-0.2,0.3c0,0.1,0,0.2,0,0.4c0,0.1-0.2,0.2-0.2,0.3
		c-0.1,0.3-0.3,0.4-0.5,0.6c-0.2,0.3-0.2,0.8-0.3,1.2c-0.1,0.5-0.5,1-0.6,1.6c0,0.3-0.2,0.4-0.3,0.7c-0.1,0.3-0.2,0.6-0.3,0.9
		c-0.1,0.2-0.2,0.5-0.3,0.7c-0.1,0.2-0.3,0.4-0.3,0.7c0,0-0.4,0.1-0.4,0.2c-0.1,0.1-0.2,0.3-0.3,0.4c-0.2,0.2-0.3,0.5-0.5,0.7
		c-0.1,0.2-0.1,0.4-0.2,0.6c-0.1,0.3-0.3,0.5-0.4,0.8c-0.1,0.2-0.1,0.5-0.1,0.7c-0.1,0.4-0.2,0.8-0.3,1.2c-0.1,0.2,0,0.4,0,0.4
		S26.5,70,26.4,70c-0.1-0.1-0.1,0-0.2,0c-0.1-0.1-0.3-0.2-0.4-0.3c-0.3-0.2-0.7-0.4-1.1-0.4c-0.5-0.1-0.9,0-1.4,0
		c-0.5,0-1.1,0-1.6,0c-0.3,0-0.7,0.1-1,0c-0.3,0-0.8-0.2-1.1-0.1c-0.1,0-0.2,0-0.3-0.1c-0.2-0.1-0.1-0.5-0.3-0.6
		c-0.1,0-0.6-0.2-0.6-0.2c0-0.1,0-0.1-0.1-0.2c-0.1-0.1-0.1-0.1-0.3,0c-0.1,0-0.2,0.1-0.3,0.1c-0.3-0.1-0.4,0-0.6,0.2
		c-0.1,0.1-0.1,0-0.2,0c-0.2,0-0.3,0.3-0.5,0.2c-0.1,0-0.3,0.2-0.5,0.2c-0.2,0-0.3,0-0.4-0.1c-0.2-0.2-1,0.4-1.1,0.5
		c-0.1,0-0.1-0.1-0.2-0.1c-0.1,0-0.2,0.1-0.3,0.2c0,0,0,0.2,0,0.2c0,0-0.3,0.3-0.4,0.4c-0.1,0-0.1-0.1-0.2-0.1
		c-0.1,0-0.2,0.2-0.2,0.3c0,0.1,0,0.4,0,0.5c0,0-0.3-0.4-0.3,0c0,0.2,0,0.5,0,0.7c0,0.1,0,0.1,0.1,0.2c0.1,0.1,0.3,0.2,0.5,0.2
		c0.4,0,0.9-0.1,1.3-0.1c0.5,0,1-0.2,1.6-0.2c0.6,0,1.4-0.1,2,0c0.3,0.1,0.6,0.1,0.9,0.1c0.2,0,0.3-0.1,0.4,0
		c0.1,0.1,0.1,0.1,0.2,0.1c0.3,0.2,0.8,0.2,1.2,0.4c0.4,0.1,0.9,0.3,1.3,0.4c0.1,0.1,0.3,0.1,0.4,0.1c0.2,0,0.5,0.2,0.7,0.2
		c0.5,0,0.8,0.1,1.2,0.3c0.1,0,0.1,0,0.1,0.1c0.2,0.3,0.7,0.2,0.9,0.4c0,0,0.1,0.1,0.2,0.2c0.1,0.1,0.4,0,0.5,0.1
		c0.2,0.1,0.4,0.2,0.6,0.2c0.5,0.1,1.1,0.3,1.6,0.4c0.3,0,0.6,0,0.9-0.2c0.5-0.3,0.6-1,1.1-1.4c0.4-0.3,0.6-0.9,1-1.2
		c0.4-0.4,1.1-0.6,1.6-0.9c0.1,0.6,0.5,1.1,0.5,1.6c0,0.2,0.2,0.4,0.3,0.6c0,0.2,0,0.3,0.1,0.5c0.1,0.2,0.1,0.4,0.2,0.6
		c0.1,0.2,0,0.4,0.1,0.5c0.3,0.3,2-0.7,2.2-0.4c0,0.1,0.1,0.3,0.1,0.3c0,0.1-0.2,0.1-0.2,0.3c0,0.2-0.5,0.3-0.6,0.3
		c-0.2,0.1-0.3,0.2-0.4,0.4c-0.3,0.3-0.8,0.6-1.2,0.8c-0.5,0.2-0.7,0.6-1,1c-0.3,0.5-0.7,0.9-1.1,1.2c-0.2,0.2-0.5,0.6-0.9,0.6
		c-0.2,0-0.4,0.3-0.5,0.4c-0.2,0.3-0.5,0.5-0.7,0.8c-0.4,0.4-0.8,0.7-1.2,1c-0.2-0.2-0.2-0.1-0.3,0.1c-0.1,0.3-0.4,0.5-0.5,0.7
		c-0.2,0.4-0.1,0.9,0,1.3c0-0.1,0-0.1,0.1-0.2c0,0,0,0.2,0,0.2c0,0.1,0.1-0.2,0.1-0.3c0,0.1,0,0.1,0,0.2c0-0.1,0-0.2,0-0.3
		c0,0.1,0.1,0.2,0.1,0.3c0-0.1,0-0.1,0-0.2c0,0,0,0.1,0,0.1c0,0,0,0.1,0,0.1s0-0.1,0-0.1c0,0,0-0.1,0-0.1s0,0.1,0,0.2
		c0,0,0.1,0.1,0.1,0.1c0-0.1,0-0.1,0.1-0.2c0,0.1,0,0.2,0.1,0.2c0,0,0.1,0,0.1,0c0-0.1,0-0.1,0-0.1c0,0.1,0,0.1,0,0.2
		c0,0,0-0.1,0-0.1s0-0.1,0-0.1c0,0.1,0.1,0.1,0.1,0.2c0-0.1,0-0.1,0-0.2c0,0.1,0,0.1,0.1,0.2c0-0.1,0-0.1,0-0.2
		c0,0.1,0.1,0.2,0.1,0.2c0-0.1,0-0.1,0-0.2c0.1,0.1,0.1,0.1,0.2,0.2c0-0.1,0-0.2-0.1-0.2c0.1,0.1,0.1,0.1,0.2,0.2
		c-0.1-0.1-0.1-0.2-0.2-0.3c0.1,0.1,0.2,0.2,0.3,0.3c0-0.1,0-0.2,0-0.2c0,0.1,0.1,0.1,0.1,0.2c0-0.1,0-0.1,0-0.2
		c0,0.1,0.1,0.1,0.1,0.2c0-0.1,0-0.1,0-0.2c0,0.1,0.1,0.1,0.1,0.2c0,0,0-0.1,0-0.1c0,0,0-0.1,0-0.1s0.1,0.2,0,0.2c0,0,0.1,0,0.1,0
		s0-0.1,0-0.1c0,0,0.1,0.1,0.1,0.1c0-0.1,0-0.2,0-0.2c0,0.1,0.1,0.1,0.2,0.1c0-0.1,0-0.2,0-0.3c0,0.1,0,0.2,0.1,0.2
		c0-0.1,0-0.2,0-0.3c0,0.1,0,0.2,0.1,0.2c0-0.1,0-0.2,0-0.3c0,0.1,0.1,0.2,0.1,0.4c0,0,0-0.1,0-0.2c0-0.1,0.1-0.2,0.1-0.2
		c0,0.1,0,0.2,0,0.4c0-0.1,0.2-0.3,0.2-0.4c0,0.1,0,0.2-0.1,0.3l0.1-0.1c0,0,0,0.1-0.1,0.1l0.1,0c0.1-0.1,0.1-0.1,0.1-0.2l0.1,0.2
		c0-0.2,0-0.3,0-0.5c0,0.1,0,0.2,0.1,0.4c0,0,0-0.1,0-0.1c0,0,0,0.1,0.1,0.1c0,0.1,0,0,0.1-0.1c0.1-0.2,0.1,0.1,0.1,0.1
		c0,0,0.1,0,0.1,0c0,0,0-0.2,0-0.2c0,0,0.1,0.2,0.1,0.1c0,0,0.1-0.1,0.1-0.2c0,0,0,0,0.1,0c0,0,0.1,0.1,0.1,0.1s0.1,0,0.1,0
		c0,0,0.2,0.1,0.2,0.1s0,0,0-0.1c0,0,0,0,0.1,0c0,0,0,0.1,0.1,0.1c0,0,0.1,0,0.1,0c0,0,0-0.2,0-0.2c0,0,0.1,0.2,0.1,0.2
		c0,0,0.1,0,0.1,0c0.1-0.1,0.1,0,0.2-0.1c0,0,0.5,0.3,0.6,0.2c0,0,0-0.2,0-0.2c0,0,0,0.1,0,0.2c0,0,0.1,0,0.1-0.1
		c0,0.1,0.1,0.2,0.2,0.2c0.1-0.1,0.1-0.2,0.1-0.3l0.1,0.2c0,0,0,0,0-0.1c0,0,0.1,0.2,0.2,0.2c0,0,0,0,0-0.1c0-0.1,0,0,0.1,0
		c0,0,0,0.1,0.1,0.1c0,0,0-0.1,0.1-0.1c0-0.1,0-0.2,0-0.2s0.1,0.2,0.1,0.2c0,0,0.1,0.1,0.1,0.1c0,0,0-0.1,0.1-0.1
		c0,0,0.1,0.1,0.1,0.2c0-0.1,0-0.2,0.1-0.2c0,0.1,0,0.2,0.1,0.3c0,0,0.1,0,0.1,0c0,0,0-0.2,0-0.2s0.1,0.2,0.1,0.2
		c0.1,0.1,0.2-0.2,0.3-0.2c0,0,0.2,0.2,0.2,0.2c0-0.1,0-0.1,0-0.2c0.1,0,0.1,0.1,0.1,0.1c0.1,0.1,0.2,0.1,0.2,0.1
		c0.1,0,0.3-0.2,0.4-0.2c0,0-0.1,0.1-0.1,0.2c0,0,0.2-0.1,0.2-0.1c0,0-0.1-0.1,0-0.1c0,0,0,0,0.1,0v-0.1c0.1-0.5-1-0.7-1.3-0.8
		c-0.4-0.2-0.9-0.4-1.2-0.7c0,0-0.5-0.5-0.4-0.5c0.1-0.1,0.3-0.3,0.3-0.3l0.1-0.2c0.8-0.3,1.6-1,2.3-1.6c0.2-0.2,0.4-0.3,0.6-0.5
		c0.1-0.1,0.2-0.3,0.4-0.4c0.2-0.2,0.5-0.3,0.7-0.5c0,0,0,0,0.1,0c0.1,0,0.1,0,0.2-0.1c0.2-0.1,0.3-0.4,0.4-0.6
		c0.1-0.2,0.4-0.4,0.6-0.5c0.1-0.1,0.1-0.2,0.2-0.3c0.2-0.2,0.4-0.4,0.6-0.6c0.3-0.3,0.8-0.5,0.9-1c0.2-0.7,0.2-1.7,0-2.4
		c0.4-0.7,0-1.6-0.1-2.4c0-0.2-0.2-0.2-0.2-0.4c-0.1-0.2-0.2-0.5-0.3-0.7c-0.2-0.2-0.1-0.4-0.2-0.6c-0.1-0.2-0.3-0.5-0.5-0.6
		c-0.1-0.1,0-0.2,0-0.3c0-0.1-0.4-0.4-0.4-0.5c0-0.1,0.1-0.1,0.1-0.2c0-0.2-0.3-0.5-0.2-0.7c0-0.1,0.1-0.1,0.1-0.3
		c0-0.2-0.1-0.2-0.2-0.3c-0.1-0.1,0.4-0.1,0-0.3c-0.1,0,0.1-0.6,0.1-0.7c0.1-0.3,0.3-0.5,0.4-0.8c0.2-0.4,0.1-0.9,0.2-1.4
		c0-0.2,0.1-0.3,0.2-0.4c0.1-0.2,0.1-0.4,0.1-0.5c0-0.3,0-0.6,0-0.9c0-0.4,0.1-0.9,0.2-1.4c0.2-0.8,0.4-1.7,0.8-2.4
		c0,0,0.1-0.1,0.2-0.1c0.2,0.1,0.5,0.6,0.7,0.8c0.2,0.3,0.4,0.5,0.7,0.8c0.5,0.5,1.1,1,1.7,1.4c0.5,0.5,1.1,0.9,1.7,1.3
		c0.4,0.3,0.7,0.5,1.1,0.8c0.3,0.3,0.4,0.6,0.6,1c0.2,0.4,0.8,0.6,1.2,0.9c0.3,0.2,0.3,0.6,0.5,0.9c0.1,0.1,0.2,0.3,0.3,0.2
		c0.3-0.1-0.1-0.9-0.2-1c-0.1-0.1,0-0.1,0-0.1c0.1,0,0.2,0.1,0.2,0.1c0.2,0.4,0.4,1.1,0.7,1.4c0.1,0.1,0.3,0.3,0.5,0.2
		c0.2-0.1,0.1-0.4,0.1-0.4s0.1,0.1,0.2,0c0.1,0,0.1-0.1,0.1-0.2C50.9,64.5,50.8,64.3,50.7,64C50.6,63.8,50.8,64.3,50.7,64z M40.3,78
		c1.9,0,2.9,1.3,2.9,2.9c0,1.6-1.3,2.9-2.9,2.9s-2.9-1.3-2.9-2.9C37.3,79.3,38.6,78,40.3,78z M71.8,40.9c0,0,0.7-0.3,1-0.2
		c0,0,1.1-0.2,1.2,0.3l0.3,0.3c0,0,0.7-0.1,0.5,0.6c0,0,0.2,0.3,0.2,0.5c0,0,0.4,0.2,0.3,0.4c0,0,0,0.5-0.2,0.6c0,0,0.1,0.1,0,0.2
		c0,0,0.1,0.9-0.2,1.2c0,0,0.2,0.6,0.2,0.7c0,0,0.9,0.3,1.1,0.8l0.1,0.5c0,0,1.4,1.3,1.7,2.3c0,0-0.1,1.1,0,1.5c0,0,0.1,4.5,0.7,6.5
		c0,0,2,4.9,2.2,5.1c0,0-0.9,1.1-2.7,1v0.2l-0.5,0.1l-0.1,1.1l-0.2,0.2c0,0,0,1.1-0.3,1.3c0,0-0.5,0.2-0.1,1.1c0,0,0.2,1.4,0,2.1
		c0,0,0,0.6,0.2,0.9c0,0,0.5,2.9,0.5,3.6c0,0,0.3,3.1,0.4,3.2c0,0,0.8,4.8,0.3,5.6l0,0.6L78,83.4c0,0,0,0.4,0,0.5
		c0,0.1,0.1,0.3,0.1,0.3l-0.8,0.1l-1,0.1c0,0-0.3,0-0.4,0c-0.1,0-1.6,0-1.6,0l-1.1,0h-1.2l-0.3-0.2c0,0-0.8-0.2-0.6-0.7l0.5-0.4h0.6
		l1-0.5c0,0,0.4-0.6,0.9-0.5l0.2-0.4l0-0.5c0,0-0.3-0.1-0.3-0.5l0.1-0.5c0,0-0.6-2.4-0.6-2.8c0,0-1.1-2.2-1.3-4.3
		c0,0-0.9-5.4-0.9-6.5c0,0-0.1-2.8-0.4-3.3c0,0-0.5-0.7-0.6-0.9l0-1L70.2,61l0-1.1c0,0,0.1-0.2,0-0.5c-0.1-0.3,0-1.1,0-1.1l0-2.2
		c0,0,0.1-0.8,0.2-1l0.2-0.7l0.2-0.4c0,0,0.2-0.3,0.2-0.5c0-0.2,0.1-0.4,0.1-0.4l0.2-0.3v-0.3c0,0-1.6-1-1.1-1.6l0.6-0.5l0.2-0.2
		c0,0-1.3-1.2-0.5-1.8c0,0,0.1-0.3,0.5-0.3c0,0,0.1-0.3,0.4-0.3c0,0,0.5-0.3,0.7,0c0,0,0.2,0.3,0.5,0.3l-0.1-0.4
		c0,0-0.4-0.4-0.5-0.6c0,0-0.9-0.1-0.7-0.8c0,0-0.7-0.8-0.4-2l0-0.2c0,0-0.1-0.2-0.2-0.4l0-0.2c0,0-0.4-0.6-0.3-0.7
		c0,0,0-0.3,0.2-0.4c0,0,0-0.5,0.1-0.6c0,0,0.3-0.6,0.6-0.7C71.1,41.2,71.5,40.9,71.8,40.9z"/>
</g>
</svg>
